<svg width="52" height="54" viewBox="0 0 52 54" fill="none" xmlns="http://www.w3.org/2000/svg">
<g id="material-symbols:library-add-check">
<rect x="0.5" y="0.869873" width="51.0161" height="52.2604" rx="25.5081" fill="#0389FF" fill-opacity="0.12"/>
<path id="Vector" d="M26.8784 29.5509L33.9087 22.5206L32.1667 20.7164L26.8784 26.0046L24.2032 23.3916L22.4612 25.1336L26.8784 29.5509ZM21.0302 34.4659C20.3459 34.4659 19.7598 34.222 19.272 33.7342C18.7843 33.2465 18.5408 32.6608 18.5416 31.9773V17.0457C18.5416 16.3614 18.7855 15.7753 19.2733 15.2875C19.761 14.7998 20.3467 14.5563 21.0302 14.5571H35.9618C36.6461 14.5571 37.2322 14.801 37.72 15.2888C38.2077 15.7765 38.4512 16.3622 38.4504 17.0457V31.9773C38.4504 32.6616 38.2065 33.2477 37.7187 33.7355C37.231 34.2232 36.6453 34.4667 35.9618 34.4659H21.0302ZM16.053 39.443C15.3687 39.443 14.7826 39.1992 14.2949 38.7114C13.8071 38.2236 13.5636 37.638 13.5645 36.9545V19.5343H16.053V36.9545H33.4732V39.443H16.053Z" fill="#0389FF"/>
</g>
</svg>
